<mxfile host="app.diagrams.net" modified="2023-08-11T12:20:55.911Z" agent="Mozilla/5.0 (X11; Ubuntu; Linux x86_64; rv:109.0) Gecko/20100101 Firefox/111.0" etag="4vkAf8crzNmUv2vBnKkj" version="21.6.8" type="device">
  <diagram name="Página-1" id="aqpsmvskuRmSmWAu0-Em">
    <mxGraphModel dx="1362" dy="795" grid="1" gridSize="10" guides="1" tooltips="1" connect="1" arrows="1" fold="1" page="1" pageScale="1" pageWidth="827" pageHeight="1169" math="0" shadow="0">
      <root>
        <mxCell id="0" />
        <mxCell id="1" parent="0" />
        <mxCell id="sJ5Z1y0w_CvOYzzH0akf-21" style="edgeStyle=orthogonalEdgeStyle;rounded=0;orthogonalLoop=1;jettySize=auto;html=1;entryX=0;entryY=0.5;entryDx=0;entryDy=0;" edge="1" parent="1" source="sJ5Z1y0w_CvOYzzH0akf-2" target="sJ5Z1y0w_CvOYzzH0akf-20">
          <mxGeometry relative="1" as="geometry" />
        </mxCell>
        <mxCell id="sJ5Z1y0w_CvOYzzH0akf-2" value="Cliente" style="rounded=0;whiteSpace=wrap;html=1;" vertex="1" parent="1">
          <mxGeometry x="170" y="320" width="80" height="30" as="geometry" />
        </mxCell>
        <mxCell id="sJ5Z1y0w_CvOYzzH0akf-3" value="Agência" style="rounded=0;whiteSpace=wrap;html=1;" vertex="1" parent="1">
          <mxGeometry x="450" y="520" width="80" height="30" as="geometry" />
        </mxCell>
        <mxCell id="sJ5Z1y0w_CvOYzzH0akf-86" style="edgeStyle=orthogonalEdgeStyle;rounded=0;orthogonalLoop=1;jettySize=auto;html=1;entryX=1;entryY=0.5;entryDx=0;entryDy=0;" edge="1" parent="1" source="sJ5Z1y0w_CvOYzzH0akf-4" target="sJ5Z1y0w_CvOYzzH0akf-81">
          <mxGeometry relative="1" as="geometry" />
        </mxCell>
        <mxCell id="sJ5Z1y0w_CvOYzzH0akf-4" value="Transação" style="rounded=0;whiteSpace=wrap;html=1;" vertex="1" parent="1">
          <mxGeometry x="450" y="150" width="80" height="30" as="geometry" />
        </mxCell>
        <mxCell id="sJ5Z1y0w_CvOYzzH0akf-32" style="edgeStyle=orthogonalEdgeStyle;rounded=0;orthogonalLoop=1;jettySize=auto;html=1;entryX=0.5;entryY=0;entryDx=0;entryDy=0;" edge="1" parent="1" source="sJ5Z1y0w_CvOYzzH0akf-5" target="sJ5Z1y0w_CvOYzzH0akf-31">
          <mxGeometry relative="1" as="geometry" />
        </mxCell>
        <mxCell id="sJ5Z1y0w_CvOYzzH0akf-37" style="edgeStyle=orthogonalEdgeStyle;rounded=0;orthogonalLoop=1;jettySize=auto;html=1;entryX=0.5;entryY=1;entryDx=0;entryDy=0;" edge="1" parent="1" source="sJ5Z1y0w_CvOYzzH0akf-5" target="sJ5Z1y0w_CvOYzzH0akf-36">
          <mxGeometry relative="1" as="geometry" />
        </mxCell>
        <mxCell id="sJ5Z1y0w_CvOYzzH0akf-5" value="&lt;div&gt;Conta&lt;/div&gt;" style="rounded=0;whiteSpace=wrap;html=1;" vertex="1" parent="1">
          <mxGeometry x="450" y="320" width="80" height="30" as="geometry" />
        </mxCell>
        <mxCell id="sJ5Z1y0w_CvOYzzH0akf-27" style="edgeStyle=orthogonalEdgeStyle;rounded=0;orthogonalLoop=1;jettySize=auto;html=1;entryX=0;entryY=0.5;entryDx=0;entryDy=0;" edge="1" parent="1" source="sJ5Z1y0w_CvOYzzH0akf-7" target="sJ5Z1y0w_CvOYzzH0akf-2">
          <mxGeometry relative="1" as="geometry" />
        </mxCell>
        <mxCell id="sJ5Z1y0w_CvOYzzH0akf-7" value="CPF" style="ellipse;whiteSpace=wrap;html=1;" vertex="1" parent="1">
          <mxGeometry x="40" y="210" width="70" height="40" as="geometry" />
        </mxCell>
        <mxCell id="sJ5Z1y0w_CvOYzzH0akf-25" style="edgeStyle=orthogonalEdgeStyle;rounded=0;orthogonalLoop=1;jettySize=auto;html=1;entryX=0;entryY=0.5;entryDx=0;entryDy=0;" edge="1" parent="1" source="sJ5Z1y0w_CvOYzzH0akf-8" target="sJ5Z1y0w_CvOYzzH0akf-2">
          <mxGeometry relative="1" as="geometry" />
        </mxCell>
        <mxCell id="sJ5Z1y0w_CvOYzzH0akf-8" value="Nome" style="ellipse;whiteSpace=wrap;html=1;" vertex="1" parent="1">
          <mxGeometry x="40" y="150" width="70" height="40" as="geometry" />
        </mxCell>
        <mxCell id="sJ5Z1y0w_CvOYzzH0akf-28" style="edgeStyle=orthogonalEdgeStyle;rounded=0;orthogonalLoop=1;jettySize=auto;html=1;entryX=0;entryY=0.5;entryDx=0;entryDy=0;" edge="1" parent="1" source="sJ5Z1y0w_CvOYzzH0akf-9" target="sJ5Z1y0w_CvOYzzH0akf-2">
          <mxGeometry relative="1" as="geometry" />
        </mxCell>
        <mxCell id="sJ5Z1y0w_CvOYzzH0akf-9" value="Data de nascimento" style="ellipse;whiteSpace=wrap;html=1;" vertex="1" parent="1">
          <mxGeometry x="40" y="270" width="70" height="50" as="geometry" />
        </mxCell>
        <mxCell id="sJ5Z1y0w_CvOYzzH0akf-29" style="edgeStyle=orthogonalEdgeStyle;rounded=0;orthogonalLoop=1;jettySize=auto;html=1;entryX=0;entryY=0.5;entryDx=0;entryDy=0;" edge="1" parent="1" source="sJ5Z1y0w_CvOYzzH0akf-10" target="sJ5Z1y0w_CvOYzzH0akf-2">
          <mxGeometry relative="1" as="geometry" />
        </mxCell>
        <mxCell id="sJ5Z1y0w_CvOYzzH0akf-10" value="Endereço" style="ellipse;whiteSpace=wrap;html=1;" vertex="1" parent="1">
          <mxGeometry x="40" y="340" width="70" height="40" as="geometry" />
        </mxCell>
        <mxCell id="sJ5Z1y0w_CvOYzzH0akf-30" style="edgeStyle=orthogonalEdgeStyle;rounded=0;orthogonalLoop=1;jettySize=auto;html=1;entryX=0;entryY=0.5;entryDx=0;entryDy=0;" edge="1" parent="1" source="sJ5Z1y0w_CvOYzzH0akf-12" target="sJ5Z1y0w_CvOYzzH0akf-2">
          <mxGeometry relative="1" as="geometry" />
        </mxCell>
        <mxCell id="sJ5Z1y0w_CvOYzzH0akf-12" value="Telefone" style="ellipse;whiteSpace=wrap;html=1;" vertex="1" parent="1">
          <mxGeometry x="40" y="400" width="70" height="40" as="geometry" />
        </mxCell>
        <mxCell id="sJ5Z1y0w_CvOYzzH0akf-23" style="edgeStyle=orthogonalEdgeStyle;rounded=0;orthogonalLoop=1;jettySize=auto;html=1;entryX=0;entryY=0.5;entryDx=0;entryDy=0;" edge="1" parent="1" source="sJ5Z1y0w_CvOYzzH0akf-20" target="sJ5Z1y0w_CvOYzzH0akf-5">
          <mxGeometry relative="1" as="geometry" />
        </mxCell>
        <mxCell id="sJ5Z1y0w_CvOYzzH0akf-20" value="Possui" style="rhombus;whiteSpace=wrap;html=1;" vertex="1" parent="1">
          <mxGeometry x="310" y="310" width="80" height="50" as="geometry" />
        </mxCell>
        <mxCell id="sJ5Z1y0w_CvOYzzH0akf-22" value="1" style="text;html=1;strokeColor=none;fillColor=none;align=center;verticalAlign=middle;whiteSpace=wrap;rounded=0;" vertex="1" parent="1">
          <mxGeometry x="230" y="310" width="60" height="30" as="geometry" />
        </mxCell>
        <mxCell id="sJ5Z1y0w_CvOYzzH0akf-24" value="0..n" style="text;html=1;strokeColor=none;fillColor=none;align=center;verticalAlign=middle;whiteSpace=wrap;rounded=0;" vertex="1" parent="1">
          <mxGeometry x="400" y="310" width="60" height="30" as="geometry" />
        </mxCell>
        <mxCell id="sJ5Z1y0w_CvOYzzH0akf-33" style="edgeStyle=orthogonalEdgeStyle;rounded=0;orthogonalLoop=1;jettySize=auto;html=1;entryX=0.5;entryY=0;entryDx=0;entryDy=0;" edge="1" parent="1" source="sJ5Z1y0w_CvOYzzH0akf-31" target="sJ5Z1y0w_CvOYzzH0akf-3">
          <mxGeometry relative="1" as="geometry" />
        </mxCell>
        <mxCell id="sJ5Z1y0w_CvOYzzH0akf-31" value="Pertence" style="rhombus;whiteSpace=wrap;html=1;" vertex="1" parent="1">
          <mxGeometry x="450" y="410" width="80" height="50" as="geometry" />
        </mxCell>
        <mxCell id="sJ5Z1y0w_CvOYzzH0akf-34" value="0..n" style="text;html=1;strokeColor=none;fillColor=none;align=center;verticalAlign=middle;whiteSpace=wrap;rounded=0;" vertex="1" parent="1">
          <mxGeometry x="480" y="350" width="60" height="30" as="geometry" />
        </mxCell>
        <mxCell id="sJ5Z1y0w_CvOYzzH0akf-35" value="1" style="text;html=1;strokeColor=none;fillColor=none;align=center;verticalAlign=middle;whiteSpace=wrap;rounded=0;" vertex="1" parent="1">
          <mxGeometry x="470" y="490" width="60" height="30" as="geometry" />
        </mxCell>
        <mxCell id="sJ5Z1y0w_CvOYzzH0akf-38" style="edgeStyle=orthogonalEdgeStyle;rounded=0;orthogonalLoop=1;jettySize=auto;html=1;entryX=0.5;entryY=1;entryDx=0;entryDy=0;" edge="1" parent="1" source="sJ5Z1y0w_CvOYzzH0akf-36" target="sJ5Z1y0w_CvOYzzH0akf-4">
          <mxGeometry relative="1" as="geometry" />
        </mxCell>
        <mxCell id="sJ5Z1y0w_CvOYzzH0akf-36" value="Possui" style="rhombus;whiteSpace=wrap;html=1;" vertex="1" parent="1">
          <mxGeometry x="450" y="220" width="80" height="50" as="geometry" />
        </mxCell>
        <mxCell id="sJ5Z1y0w_CvOYzzH0akf-39" value="1" style="text;html=1;strokeColor=none;fillColor=none;align=center;verticalAlign=middle;whiteSpace=wrap;rounded=0;" vertex="1" parent="1">
          <mxGeometry x="470" y="290" width="60" height="30" as="geometry" />
        </mxCell>
        <mxCell id="sJ5Z1y0w_CvOYzzH0akf-40" value="0..n" style="text;html=1;strokeColor=none;fillColor=none;align=center;verticalAlign=middle;whiteSpace=wrap;rounded=0;" vertex="1" parent="1">
          <mxGeometry x="480" y="180" width="60" height="30" as="geometry" />
        </mxCell>
        <mxCell id="sJ5Z1y0w_CvOYzzH0akf-48" style="edgeStyle=orthogonalEdgeStyle;rounded=0;orthogonalLoop=1;jettySize=auto;html=1;entryX=0.5;entryY=1;entryDx=0;entryDy=0;" edge="1" parent="1" source="sJ5Z1y0w_CvOYzzH0akf-41" target="sJ5Z1y0w_CvOYzzH0akf-3">
          <mxGeometry relative="1" as="geometry" />
        </mxCell>
        <mxCell id="sJ5Z1y0w_CvOYzzH0akf-41" value="Código de Agência" style="ellipse;whiteSpace=wrap;html=1;" vertex="1" parent="1">
          <mxGeometry x="290" y="600" width="70" height="40" as="geometry" />
        </mxCell>
        <mxCell id="sJ5Z1y0w_CvOYzzH0akf-51" style="edgeStyle=orthogonalEdgeStyle;rounded=0;orthogonalLoop=1;jettySize=auto;html=1;" edge="1" parent="1" source="sJ5Z1y0w_CvOYzzH0akf-42">
          <mxGeometry relative="1" as="geometry">
            <mxPoint x="490" y="550" as="targetPoint" />
          </mxGeometry>
        </mxCell>
        <mxCell id="sJ5Z1y0w_CvOYzzH0akf-42" value="Nome" style="ellipse;whiteSpace=wrap;html=1;" vertex="1" parent="1">
          <mxGeometry x="400" y="640" width="70" height="40" as="geometry" />
        </mxCell>
        <mxCell id="sJ5Z1y0w_CvOYzzH0akf-50" style="edgeStyle=orthogonalEdgeStyle;rounded=0;orthogonalLoop=1;jettySize=auto;html=1;" edge="1" parent="1" source="sJ5Z1y0w_CvOYzzH0akf-43">
          <mxGeometry relative="1" as="geometry">
            <mxPoint x="490" y="550" as="targetPoint" />
          </mxGeometry>
        </mxCell>
        <mxCell id="sJ5Z1y0w_CvOYzzH0akf-43" value="Endereço" style="ellipse;whiteSpace=wrap;html=1;" vertex="1" parent="1">
          <mxGeometry x="510" y="640" width="70" height="40" as="geometry" />
        </mxCell>
        <mxCell id="sJ5Z1y0w_CvOYzzH0akf-52" style="edgeStyle=orthogonalEdgeStyle;rounded=0;orthogonalLoop=1;jettySize=auto;html=1;entryX=0.5;entryY=1;entryDx=0;entryDy=0;" edge="1" parent="1" source="sJ5Z1y0w_CvOYzzH0akf-44" target="sJ5Z1y0w_CvOYzzH0akf-3">
          <mxGeometry relative="1" as="geometry" />
        </mxCell>
        <mxCell id="sJ5Z1y0w_CvOYzzH0akf-44" value="Data de Criação" style="ellipse;whiteSpace=wrap;html=1;" vertex="1" parent="1">
          <mxGeometry x="620" y="600" width="70" height="40" as="geometry" />
        </mxCell>
        <mxCell id="sJ5Z1y0w_CvOYzzH0akf-59" style="edgeStyle=orthogonalEdgeStyle;rounded=0;orthogonalLoop=1;jettySize=auto;html=1;entryX=1;entryY=0.5;entryDx=0;entryDy=0;" edge="1" parent="1" source="sJ5Z1y0w_CvOYzzH0akf-53" target="sJ5Z1y0w_CvOYzzH0akf-5">
          <mxGeometry relative="1" as="geometry" />
        </mxCell>
        <mxCell id="sJ5Z1y0w_CvOYzzH0akf-53" value="Código" style="ellipse;whiteSpace=wrap;html=1;" vertex="1" parent="1">
          <mxGeometry x="670" y="225" width="60" height="40" as="geometry" />
        </mxCell>
        <mxCell id="sJ5Z1y0w_CvOYzzH0akf-60" style="edgeStyle=orthogonalEdgeStyle;rounded=0;orthogonalLoop=1;jettySize=auto;html=1;entryX=1;entryY=0.5;entryDx=0;entryDy=0;" edge="1" parent="1" source="sJ5Z1y0w_CvOYzzH0akf-54" target="sJ5Z1y0w_CvOYzzH0akf-5">
          <mxGeometry relative="1" as="geometry" />
        </mxCell>
        <mxCell id="sJ5Z1y0w_CvOYzzH0akf-54" value="Agência Detentora" style="ellipse;whiteSpace=wrap;html=1;" vertex="1" parent="1">
          <mxGeometry x="670" y="285" width="60" height="40" as="geometry" />
        </mxCell>
        <mxCell id="sJ5Z1y0w_CvOYzzH0akf-61" style="edgeStyle=orthogonalEdgeStyle;rounded=0;orthogonalLoop=1;jettySize=auto;html=1;entryX=1;entryY=0.5;entryDx=0;entryDy=0;" edge="1" parent="1" source="sJ5Z1y0w_CvOYzzH0akf-55" target="sJ5Z1y0w_CvOYzzH0akf-5">
          <mxGeometry relative="1" as="geometry" />
        </mxCell>
        <mxCell id="sJ5Z1y0w_CvOYzzH0akf-55" value="Dono" style="ellipse;whiteSpace=wrap;html=1;" vertex="1" parent="1">
          <mxGeometry x="670" y="345" width="60" height="40" as="geometry" />
        </mxCell>
        <mxCell id="sJ5Z1y0w_CvOYzzH0akf-62" style="edgeStyle=orthogonalEdgeStyle;rounded=0;orthogonalLoop=1;jettySize=auto;html=1;entryX=1;entryY=0.5;entryDx=0;entryDy=0;" edge="1" parent="1" source="sJ5Z1y0w_CvOYzzH0akf-56" target="sJ5Z1y0w_CvOYzzH0akf-5">
          <mxGeometry relative="1" as="geometry" />
        </mxCell>
        <mxCell id="sJ5Z1y0w_CvOYzzH0akf-56" value="Saldo" style="ellipse;whiteSpace=wrap;html=1;" vertex="1" parent="1">
          <mxGeometry x="670" y="405" width="60" height="40" as="geometry" />
        </mxCell>
        <mxCell id="sJ5Z1y0w_CvOYzzH0akf-58" style="edgeStyle=orthogonalEdgeStyle;rounded=0;orthogonalLoop=1;jettySize=auto;html=1;entryX=1;entryY=0.5;entryDx=0;entryDy=0;" edge="1" parent="1" source="sJ5Z1y0w_CvOYzzH0akf-57" target="sJ5Z1y0w_CvOYzzH0akf-5">
          <mxGeometry relative="1" as="geometry" />
        </mxCell>
        <mxCell id="sJ5Z1y0w_CvOYzzH0akf-57" value="Tipo" style="ellipse;whiteSpace=wrap;html=1;" vertex="1" parent="1">
          <mxGeometry x="670" y="165" width="60" height="40" as="geometry" />
        </mxCell>
        <mxCell id="sJ5Z1y0w_CvOYzzH0akf-66" style="edgeStyle=orthogonalEdgeStyle;rounded=0;orthogonalLoop=1;jettySize=auto;html=1;entryX=0.5;entryY=0;entryDx=0;entryDy=0;" edge="1" parent="1" source="sJ5Z1y0w_CvOYzzH0akf-63" target="sJ5Z1y0w_CvOYzzH0akf-4">
          <mxGeometry relative="1" as="geometry" />
        </mxCell>
        <mxCell id="sJ5Z1y0w_CvOYzzH0akf-63" value="Tipo" style="ellipse;whiteSpace=wrap;html=1;" vertex="1" parent="1">
          <mxGeometry x="362.5" y="60" width="60" height="40" as="geometry" />
        </mxCell>
        <mxCell id="sJ5Z1y0w_CvOYzzH0akf-67" style="edgeStyle=orthogonalEdgeStyle;rounded=0;orthogonalLoop=1;jettySize=auto;html=1;" edge="1" parent="1" source="sJ5Z1y0w_CvOYzzH0akf-64" target="sJ5Z1y0w_CvOYzzH0akf-4">
          <mxGeometry relative="1" as="geometry" />
        </mxCell>
        <mxCell id="sJ5Z1y0w_CvOYzzH0akf-64" value="Conta de Origem" style="ellipse;whiteSpace=wrap;html=1;" vertex="1" parent="1">
          <mxGeometry x="362.5" y="10" width="60" height="40" as="geometry" />
        </mxCell>
        <mxCell id="sJ5Z1y0w_CvOYzzH0akf-68" style="edgeStyle=orthogonalEdgeStyle;rounded=0;orthogonalLoop=1;jettySize=auto;html=1;entryX=0.5;entryY=0;entryDx=0;entryDy=0;" edge="1" parent="1" source="sJ5Z1y0w_CvOYzzH0akf-65" target="sJ5Z1y0w_CvOYzzH0akf-4">
          <mxGeometry relative="1" as="geometry" />
        </mxCell>
        <mxCell id="sJ5Z1y0w_CvOYzzH0akf-65" value="Valor" style="ellipse;whiteSpace=wrap;html=1;" vertex="1" parent="1">
          <mxGeometry x="557.5" y="60" width="60" height="40" as="geometry" />
        </mxCell>
        <mxCell id="sJ5Z1y0w_CvOYzzH0akf-70" style="edgeStyle=orthogonalEdgeStyle;rounded=0;orthogonalLoop=1;jettySize=auto;html=1;entryX=1;entryY=0.5;entryDx=0;entryDy=0;" edge="1" parent="1" source="sJ5Z1y0w_CvOYzzH0akf-69" target="sJ5Z1y0w_CvOYzzH0akf-5">
          <mxGeometry relative="1" as="geometry" />
        </mxCell>
        <mxCell id="sJ5Z1y0w_CvOYzzH0akf-69" value="&lt;u&gt;Código&lt;/u&gt;" style="ellipse;whiteSpace=wrap;html=1;" vertex="1" parent="1">
          <mxGeometry x="670" y="470" width="60" height="40" as="geometry" />
        </mxCell>
        <mxCell id="sJ5Z1y0w_CvOYzzH0akf-76" style="edgeStyle=orthogonalEdgeStyle;rounded=0;orthogonalLoop=1;jettySize=auto;html=1;entryX=0;entryY=0.5;entryDx=0;entryDy=0;" edge="1" parent="1" source="sJ5Z1y0w_CvOYzzH0akf-74" target="sJ5Z1y0w_CvOYzzH0akf-2">
          <mxGeometry relative="1" as="geometry" />
        </mxCell>
        <mxCell id="sJ5Z1y0w_CvOYzzH0akf-74" value="&lt;u&gt;Código&lt;/u&gt;" style="ellipse;whiteSpace=wrap;html=1;" vertex="1" parent="1">
          <mxGeometry x="45" y="460" width="65" height="40" as="geometry" />
        </mxCell>
        <mxCell id="sJ5Z1y0w_CvOYzzH0akf-78" style="edgeStyle=orthogonalEdgeStyle;rounded=0;orthogonalLoop=1;jettySize=auto;html=1;entryX=0.5;entryY=1;entryDx=0;entryDy=0;" edge="1" parent="1" source="sJ5Z1y0w_CvOYzzH0akf-77" target="sJ5Z1y0w_CvOYzzH0akf-3">
          <mxGeometry relative="1" as="geometry" />
        </mxCell>
        <mxCell id="sJ5Z1y0w_CvOYzzH0akf-77" value="&lt;u&gt;Código&lt;/u&gt;" style="ellipse;whiteSpace=wrap;html=1;" vertex="1" parent="1">
          <mxGeometry x="455" y="720" width="70" height="40" as="geometry" />
        </mxCell>
        <mxCell id="sJ5Z1y0w_CvOYzzH0akf-80" style="edgeStyle=orthogonalEdgeStyle;rounded=0;orthogonalLoop=1;jettySize=auto;html=1;entryX=0.5;entryY=0;entryDx=0;entryDy=0;" edge="1" parent="1" source="sJ5Z1y0w_CvOYzzH0akf-79" target="sJ5Z1y0w_CvOYzzH0akf-4">
          <mxGeometry relative="1" as="geometry" />
        </mxCell>
        <mxCell id="sJ5Z1y0w_CvOYzzH0akf-79" value="&lt;u&gt;Código&lt;/u&gt;" style="ellipse;whiteSpace=wrap;html=1;" vertex="1" parent="1">
          <mxGeometry x="552.5" y="10" width="70" height="40" as="geometry" />
        </mxCell>
        <mxCell id="sJ5Z1y0w_CvOYzzH0akf-84" style="edgeStyle=orthogonalEdgeStyle;rounded=0;orthogonalLoop=1;jettySize=auto;html=1;entryX=1;entryY=0.5;entryDx=0;entryDy=0;" edge="1" parent="1" source="sJ5Z1y0w_CvOYzzH0akf-81" target="sJ5Z1y0w_CvOYzzH0akf-82">
          <mxGeometry relative="1" as="geometry" />
        </mxCell>
        <mxCell id="sJ5Z1y0w_CvOYzzH0akf-85" style="edgeStyle=orthogonalEdgeStyle;rounded=0;orthogonalLoop=1;jettySize=auto;html=1;entryX=1;entryY=0.5;entryDx=0;entryDy=0;" edge="1" parent="1" source="sJ5Z1y0w_CvOYzzH0akf-81" target="sJ5Z1y0w_CvOYzzH0akf-83">
          <mxGeometry relative="1" as="geometry" />
        </mxCell>
        <mxCell id="sJ5Z1y0w_CvOYzzH0akf-81" value="" style="triangle;whiteSpace=wrap;html=1;" vertex="1" parent="1">
          <mxGeometry x="330" y="132.5" width="20" height="65" as="geometry" />
        </mxCell>
        <mxCell id="sJ5Z1y0w_CvOYzzH0akf-82" value="Depósito" style="rounded=0;whiteSpace=wrap;html=1;" vertex="1" parent="1">
          <mxGeometry x="200" y="120" width="70" height="30" as="geometry" />
        </mxCell>
        <mxCell id="sJ5Z1y0w_CvOYzzH0akf-83" value="Saque" style="rounded=0;whiteSpace=wrap;html=1;" vertex="1" parent="1">
          <mxGeometry x="200" y="180" width="70" height="30" as="geometry" />
        </mxCell>
      </root>
    </mxGraphModel>
  </diagram>
</mxfile>
